<?xml version="1.0" encoding="utf-8"?>
<svg xmlns="http://www.w3.org/2000/svg" viewBox="119.461 247.4018 283.884 102.2489" width="283.884px" height="102.249px">
  <path style="stroke: rgb(0, 0, 0); fill-opacity: 0; paint-order: fill; fill: none; stroke-width: 3px;" d="M 119.461 319.846 L 166.667 319.846 C 166.667 319.846 178.076 321.907 183.425 314.251 C 188.774 306.595 188.354 302.716 191.814 308.274 C 195.274 313.832 197.278 319.904 197.278 319.904 C 197.278 319.904 210.028 182.774 213.739 285.698 C 215.569 415.015 222.868 306.963 227.314 314.353 C 231.76 321.743 232.982 319.627 236.323 304.566 C 236.323 304.566 239.286 285.45 241.337 291.193 C 243.388 296.936 246.591 307.034 246.591 307.034 C 246.591 307.034 251.169 321.262 251.58 321.672 C 251.991 322.082 257.732 315.929 257.732 315.929 C 257.732 315.929 264.705 320.031 265.115 320.031 C 265.525 320.031 403.345 319.621 403.345 320.031"/>
</svg>