<svg width="90" height="89" viewBox="0 0 90 89" fill="none" xmlns="http://www.w3.org/2000/svg">
<path d="M80.7038 18.2663C86.2053 25.8191 89.1744 34.9197 89.1857 44.2637L80.3363 44.2744C80.3273 36.7992 77.952 29.5187 73.5508 23.4765L80.7038 18.2663Z" fill="#FF5C00"/>
<path d="M89.1857 44.3172C89.1857 56.0522 84.524 67.3066 76.2261 75.6045C67.9282 83.9024 56.6738 88.5641 44.9388 88.5641C33.2038 88.5641 21.9494 83.9024 13.6515 75.6045C5.35361 67.3066 0.691896 56.0522 0.691895 44.3172L9.54128 44.3172C9.54128 53.7052 13.2706 62.7087 19.909 69.3471C26.5473 75.9854 35.5508 79.7148 44.9388 79.7148C54.3268 79.7148 63.3303 75.9854 69.9686 69.3471C76.607 62.7087 80.3363 53.7052 80.3363 44.3172H89.1857Z" fill="#0066FF" fill-opacity="0.21"/>
<path d="M0.691895 44.3172C0.691895 34.7814 3.77256 25.5007 9.47495 17.8577L16.5677 23.1496C12.0058 29.264 9.54128 36.6886 9.54128 44.3172H0.691895Z" fill="#F7BA1E"/>
<path d="M9.24781 18.1649C14.7706 10.6277 22.5378 5.03243 31.4361 2.18094L34.1366 10.6082C27.018 12.8894 20.8043 17.3656 16.386 23.3954L9.24781 18.1649Z" fill="#722ED1"/>
<path d="M31.4011 2.19218C40.297 -0.666705 49.8697 -0.635937 58.747 2.28007L55.9854 10.6875C48.8835 8.35469 41.2254 8.33008 34.1086 10.6172L31.4011 2.19218Z" fill="#3491FA"/>
<path d="M58.6295 2.24166C67.515 5.13286 75.2571 10.7628 80.7462 18.3246L73.5847 23.5231C69.1935 17.4737 62.9998 12.9697 55.8914 10.6568L58.6295 2.24166Z" fill="#D91AD9"/>
<path d="M56.7591 44.8703C54.2781 38.4229 45.4445 38.0753 47.5779 28.7044C47.7359 28.0091 46.9932 27.4718 46.3927 27.8353C40.6564 31.217 36.5319 37.9963 39.9927 46.8772C40.2771 47.6042 39.4238 48.2837 38.8075 47.8096C35.9472 45.6447 35.647 42.5316 35.8998 40.3034C35.9947 39.4817 34.9201 39.0866 34.4618 39.7661C33.3872 41.4096 32.2969 44.0644 32.2969 48.0624C32.8974 56.9118 40.3719 59.6298 43.0584 59.9775C46.8984 60.4674 51.0544 59.7563 54.0411 57.0224C57.328 53.9726 58.529 49.1054 56.7591 44.8703ZM42.0944 52.819C44.37 52.2659 45.5393 50.6224 45.8554 49.1686C46.3769 46.9089 44.3384 44.6965 45.7132 41.1251C46.2347 44.0802 50.8806 45.9291 50.8806 49.1528C51.007 53.1508 46.6771 56.58 42.0944 52.819Z" fill="#FF5C00"/>
</svg>
