<?xml version="1.0" encoding="utf-8"?>
<svg xmlns="http://www.w3.org/2000/svg" viewBox="262.0271 180.5646 17.4779 14.6364" width="17.4779px" height="14.6364px">
  <path style="stroke: rgb(0, 0, 0); fill: rgba(216, 216, 216, 0);" d="M 277.874 188.287 L 271.491 194.559 C 271.491 194.559 270.415 196.1 268.814 194.407 C 267.213 192.714 262.914 188.418 262.914 188.418 C 262.914 188.418 260.539 185.232 263.562 182.215 C 266.585 179.198 269.273 181.24 269.273 181.24 C 269.273 181.24 270.132 182.113 271.091 181.303 C 272.05 180.493 273.677 180.179 275.894 181.254 C 278.111 182.329 278.311 184.536 278.311 184.587"/>
  <path style="stroke: rgb(0, 0, 0); fill: rgba(216, 216, 216, 0);" d="M 262.26 186.544 L 265.17 186.556 C 265.17 186.556 266.11 186.46 266.323 187.4 C 266.536 188.34 266.649 189.52 267.506 186.992 C 268.363 184.464 268.28 183.812 269.014 186.829 C 269.748 189.846 270.787 193.456 271.869 187.441 C 272.951 181.426 273.54 186.992 273.622 187.319 C 273.704 187.646 273.938 190.039 275.008 186.91"/>
  <path style="stroke: rgb(0, 0, 0); fill: rgba(0, 0, 0, 0);" d="M 274.785 187.56 C 274.785 187.56 274.975 186.401 276.029 186.401 C 277.083 186.401 279.505 186.464 279.505 186.464"/>
</svg>